# xmcd
# Copyright (C) 1995-1998 Ti Kan
#
# Track frame offsets:
#       150
#       2689
#       18075
#       29550
#       48225
#       69460
#       98000
#       114075
#       126975
#       141985
#       153765
#       167895
#       187362
#       199650
#       213075
#       231752
#       236275
#
# Disc length: 3355 seconds
#
# Revision: 0
# Processed by: cddbd v1.5.1PL0 Copyright (c) Steve Scherf et al.
# Submitted via: CD-Transfer v1.0
#
DISCID=db0d1911
DTITLE=ch-art-session - 
DYEAR=96
DGENRE=
TTITLE0=Hello
TTITLE1=Tears rollin down the Street
TTITLE2=One lousy Evening in June
TTITLE3=Treat me right
TTITLE4=Zäme mit mir
TTITLE5=Equilibré
TTITLE6=Real Nice
TTITLE7=Bassman
TTITLE8=Red Uniforms
TTITLE9=Elektromobil
TTITLE10=Lutz
TTITLE11=Ton Regard
TTITLE12=Lies
TTITLE13=One of those Saturday Nights
TTITLE14=He and Me
TTITLE15=Goodbye
TTITLE16=My way Home
EXTD=
EXTT0=
EXTT1=
EXTT2=
EXTT3=
EXTT4=
EXTT5=
EXTT6=
EXTT7=
EXTT8=
EXTT9=
EXTT10=
EXTT11=
EXTT12=
EXTT13=
EXTT14=
EXTT15=
EXTT16=
PLAYORDER=
